<?xml version="1.0" encoding="utf-8"?>
<!-- Generator: Adobe Illustrator 13.0.0, SVG Export Plug-In . SVG Version: 6.00 Build 14948)  -->
<!DOCTYPE svg PUBLIC "-//W3C//DTD SVG 1.1//EN" "http://www.w3.org/Graphics/SVG/1.1/DTD/svg11.dtd">
<svg version="1.1" id="Слой_1" xmlns="http://www.w3.org/2000/svg" xmlns:xlink="http://www.w3.org/1999/xlink" x="0px" y="0px"
	 width="480px" height="480px" viewBox="0 0 480 480" enable-background="new 0 0 480 480" xml:space="preserve">
<g id="Line">
	<g>
		<path fill="#3C3E8E" d="M355.769,26.758H124.231c-53.281,0-96.474,43.193-96.474,96.474v231.537
			c0,53.281,43.193,96.474,96.474,96.474h231.537c53.281,0,96.474-43.192,96.474-96.474V123.231
			C452.242,69.951,409.05,26.758,355.769,26.758z M66.348,123.231c0-31.968,25.915-57.883,57.883-57.883h231.537
			c31.969,0,57.886,25.915,57.886,57.883v19.295H66.348V123.231z M355.769,412.653H124.231c-31.968,0-57.883-25.917-57.883-57.885
			V181.116h347.306v173.653C413.653,386.736,387.736,412.653,355.769,412.653z"/>
		<path fill="#FFFFFF" d="M124.231,453.501C69.702,453.498,25.5,409.297,25.5,354.769l0,0V123.231
			c0-54.529,44.202-98.731,98.731-98.731l0,0h231.536v2.258v2.257H124.231c-26.025,0.002-49.563,10.542-66.621,27.596l0,0
			c-17.054,17.057-27.594,40.597-27.596,66.621l0,0v231.537c0.001,26.022,10.542,49.563,27.596,66.621l0,0
			c17.057,17.053,40.595,27.594,66.621,27.594l0,0h231.536c26.023,0,49.563-10.541,66.622-27.594l0,0
			c17.053-17.059,27.594-40.598,27.594-66.621l0,0V123.231c0-26.025-10.541-49.563-27.594-66.621l0,0
			c-17.059-17.054-40.598-27.594-66.622-27.596l0,0v-2.257V24.5c54.529,0,98.73,44.202,98.733,98.731l0,0v231.537
			c-0.003,54.528-44.204,98.729-98.733,98.732l0,0H124.231L124.231,453.501z M124.231,414.911
			c-33.216-0.003-60.141-26.929-60.142-60.145l0,0v-175.91h351.822v175.912c-0.003,33.214-26.929,60.142-60.145,60.144l0,0v-2.258
			v-2.259c15.368-0.003,29.26-6.224,39.335-16.294l0,0c10.069-10.073,16.29-23.967,16.293-39.333l0,0l-0.003-171.395H68.606v171.395
			c0,15.366,6.223,29.259,16.291,39.333l0,0c10.074,10.07,23.966,16.291,39.334,16.294l0,0h231.536v2.259v2.258L124.231,414.911
			L124.231,414.911z M64.089,144.785v-21.553c0.001-33.216,26.926-60.141,60.142-60.142l0,0h231.536
			c33.215,0.001,60.143,26.926,60.145,60.142l0,0v21.553H64.089L64.089,144.785z M68.606,140.268h342.789v-17.037
			c-0.003-15.368-6.224-29.26-16.293-39.334l0,0c-10.074-10.068-23.967-16.291-39.335-16.291l0,0H124.231
			c-15.368,0-29.26,6.223-39.334,16.291l0,0c-10.068,10.074-16.291,23.966-16.291,39.334l0,0V140.268L68.606,140.268z"/>
	</g>
	<g>
		<path fill="#7EBB3D" d="M215.11,244.596c-7.505-7.566-19.721-7.616-27.287-0.113c-0.038,0.037-0.075,0.076-0.112,0.113
			l-38.589,38.589c-7.566,7.506-7.617,19.722-0.112,27.287c0.038,0.037,0.075,0.075,0.112,0.112l38.589,38.589
			c7.504,7.565,19.72,7.616,27.286,0.113c0.038-0.039,0.075-0.076,0.113-0.113c7.566-7.504,7.616-19.721,0.111-27.287
			c-0.037-0.037-0.075-0.074-0.111-0.111l-25.083-24.891l25.083-24.891c7.566-7.504,7.616-19.721,0.111-27.286
			C215.184,244.67,215.147,244.633,215.11,244.596z"/>
		<path fill="#FFFFFF" d="M201.411,357.138c-5.538,0.001-11.095-2.131-15.297-6.369l0,0l-38.579-38.58
			c-0.057-0.056-0.094-0.093-0.128-0.128l0,0c-4.165-4.199-6.253-9.7-6.251-15.179l0,0c-0.001-5.538,2.133-11.094,6.37-15.298l0,0
			l38.589-38.588c0.024-0.023,0.068-0.068,0.118-0.118l0,0c4.196-4.166,9.699-6.252,15.176-6.25l0,0
			c5.538-0.001,11.095,2.131,15.304,6.375l0,0l-1.603,1.592l1.608-1.588c0.022,0.025,0.064,0.064,0.107,0.109l0,0
			c4.163,4.193,6.25,9.695,6.249,15.176l0,0c0.002,5.538-2.129,11.096-6.374,15.303l0,0l-23.468,23.287l23.464,23.285
			c0.051,0.05,0.09,0.089,0.128,0.129l0,0c4.163,4.193,6.25,9.695,6.249,15.176l0,0c0.002,5.539-2.129,11.095-6.378,15.306l0,0
			c-0.03,0.03-0.057,0.059-0.109,0.111l0,0c-4.196,4.159-9.693,6.247-15.169,6.247l0,0
			C201.416,357.138,201.414,357.138,201.411,357.138L201.411,357.138z M189.401,246.098c-0.014,0.012-0.044,0.044-0.092,0.094l0,0
			l-38.596,38.595c-3.362,3.336-5.037,7.707-5.041,12.097l0,0c0.004,4.345,1.641,8.669,4.926,11.983l0,0
			c0.057,0.057,0.094,0.094,0.123,0.121l0,0l38.594,38.597c3.338,3.361,7.706,5.033,12.097,5.035l0,0
			c4.344-0.002,8.668-1.642,11.974-4.911l0,0c0.048-0.052,0.093-0.098,0.135-0.138l0,0c3.361-3.337,5.036-7.706,5.039-12.099l0,0
			c-0.002-4.344-1.641-8.67-4.933-11.988l0,0c-0.043-0.043-0.08-0.079-0.105-0.106l0,0l-26.7-26.494l26.7-26.493
			c3.361-3.335,5.036-7.703,5.039-12.097l0,0c-0.002-4.346-1.641-8.67-4.952-12.01l0,0c-0.019-0.017-0.052-0.052-0.098-0.099l0,0
			l-0.001,0.001c-3.337-3.363-7.706-5.038-12.098-5.039l0,0C197.065,241.146,192.739,242.785,189.401,246.098L189.401,246.098z"/>
	</g>
	<g>
		<path fill="#7EBB3D" d="M292.29,244.596c-7.567-7.566-19.833-7.566-27.398,0c-7.567,7.566-7.567,19.832,0,27.397l25.082,24.891
			l-25.082,24.891c-7.567,7.505-7.616,19.722-0.113,27.287c0.037,0.037,0.074,0.076,0.113,0.111
			c7.503,7.566,19.722,7.616,27.285,0.113c0.037-0.039,0.076-0.076,0.113-0.113l38.59-38.589c7.565-7.505,7.615-19.721,0.111-27.287
			c-0.037-0.038-0.075-0.075-0.111-0.112L292.29,244.596z"/>
		<path fill="#FFFFFF" d="M278.589,357.138c-5.537,0.001-11.096-2.131-15.257-6.331l0,0c-0.078-0.074-0.127-0.125-0.158-0.157l0,0
			c-4.167-4.196-6.254-9.699-6.252-15.178l0,0c-0.002-5.538,2.133-11.095,6.377-15.301l0,0l23.468-23.288l-23.474-23.293
			c-4.222-4.22-6.34-9.769-6.338-15.297l0,0c-0.002-5.529,2.118-11.079,6.338-15.295l0,0c4.217-4.219,9.768-6.338,15.296-6.336l0,0
			c5.528-0.002,11.078,2.114,15.297,6.334l0,0l-1.598,1.598l-1.597,1.598c-3.348-3.347-7.717-5.012-12.103-5.013l0,0
			c-4.389,0.001-8.756,1.666-12.102,5.013l0,0c-3.347,3.348-5.013,7.715-5.015,12.102l0,0c0.002,4.386,1.666,8.753,5.008,12.097l0,0
			l26.698,26.493l-26.699,26.494c-3.362,3.337-5.038,7.705-5.04,12.095l0,0c0.002,4.345,1.639,8.669,4.935,11.992l0,0
			c0.051,0.049,0.075,0.075,0.121,0.12l0,0c3.334,3.36,7.703,5.033,12.096,5.037l0,0c4.343-0.004,8.668-1.642,11.953-4.896l0,0
			c0.086-0.088,0.13-0.13,0.148-0.15l0,0l38.595-38.595c3.362-3.336,5.037-7.706,5.039-12.098l0,0
			c-0.002-4.344-1.642-8.671-4.951-12.009l0,0c-0.012-0.014-0.05-0.051-0.093-0.094l0,0l-38.591-38.589l1.597-1.598l1.598-1.598
			l38.608,38.608c0.01,0.012,0.05,0.051,0.101,0.102l0,0c4.16,4.195,6.249,9.694,6.247,15.176l0,0
			c0.002,5.537-2.13,11.096-6.367,15.297l0,0l-38.571,38.571c-0.074,0.074-0.094,0.094-0.138,0.139l0,0
			c-4.197,4.158-9.692,6.247-15.168,6.247l0,0C278.594,357.138,278.591,357.138,278.589,357.138L278.589,357.138z"/>
	</g>
</g>
</svg>
